<?xml version="1.0" encoding="UTF-8"?>
<svg width="41px" height="52px" viewBox="0 0 41 52" version="1.1" xmlns="http://www.w3.org/2000/svg" xmlns:xlink="http://www.w3.org/1999/xlink">
    <!-- Generator: Sketch 46.1 (44463) - http://www.bohemiancoding.com/sketch -->
    <title>Group 7@3x</title>
    <desc>Created with Sketch.</desc>
    <defs></defs>
    <g id="layout" stroke="none" stroke-width="1" fill="none" fill-rule="evenodd">
        <g id="Landing" transform="translate(-1237.000000, -4336.000000)" fill="#97040C">
            <g id="Group-7" transform="translate(1237.000000, 4336.000000)">
                <path d="M13.4190028,0 L27.6220465,0 C27.6138366,0.0825527862 27.6056268,0.165105572 27.6056268,0.243530719 L27.6056268,3.64883315 L27.6056268,3.9171297 L24.5926111,3.9171297 L24.5926111,32.637244 L30.3354025,32.637244 L30.3354025,10.8474361 L27.6548859,10.8474361 L27.6548859,6.94681696 L41,6.94681696 L41,10.8556914 L37.9869844,10.8556914 L37.9869844,11.1859025 C37.9869844,19.4122877 37.9869844,27.6386728 37.9910893,35.8650579 C37.9910893,36.0342912 37.9459351,36.1581203 37.8268923,36.2819495 C36.29165,37.8504525 34.7605126,39.423083 33.2334802,40.9998412 C33.130857,41.1071599 33.0282339,41.1525639 32.8804565,41.1525639 C30.1999399,41.1484363 27.5153184,41.1484363 24.8348018,41.1484363 L24.600821,41.1484363 L24.600821,46.9849182 L27.589207,46.9849182 L27.589207,52 L13.4354225,52 L13.4354225,46.9684077 L16.4197036,46.9684077 L16.4197036,41.1443086 L16.1610933,41.1443086 C13.4846816,41.1443086 10.8123748,41.1443086 8.13596316,41.1484363 C7.99639567,41.1484363 7.89787745,41.1071599 7.79935923,41.0080965 C6.27643172,39.4354659 4.74939928,37.866963 3.21826191,36.3067154 C3.08279936,36.1663756 3.02943532,36.0301635 3.02943532,35.8402921 C3.03354025,27.613907 3.03354025,19.3875218 3.03354025,11.1611367 L3.03354025,10.8556914 L0,10.8556914 L0,6.93443404 L13.3656388,6.93443404 L13.3656388,10.8556914 L10.6892271,10.8556914 L10.6892271,32.6413716 L16.4238086,32.6413716 L16.4238086,3.90474679 L13.4231077,3.90474679 C13.4190028,2.58390221 13.4190028,1.2919511 13.4190028,0 Z" id="Shape"></path>
            </g>
        </g>
    </g>
</svg>