<svg xmlns="http://www.w3.org/2000/svg" viewBox="0 0 37.71042 26.35"><defs><style>.cls-1,.cls-2{fill:#fff;}.cls-1{stroke:#fff;stroke-width:0.7px;}</style></defs><title>Asset 1</title><g id="Layer_2" data-name="Layer 2"><g id="Layer_1-2" data-name="Layer 1"><path id="Shape" class="cls-1" d="M32.258,10a5.40036,5.40036,0,0,0-2.3-3.9l-.5-.4-.4.5a6.18265,6.18265,0,0,0-.9,3.7,4.64827,4.64827,0,0,0,.9,2.3,6.335,6.335,0,0,1-3.4.9H.458c-.5,2.7.3,12.9,12,12.9,8.7,0,15.8-3.9,19.1-12.1,1.1,0,3.9.2,5.3-2.5l.4-.7-.5-.4A7.34938,7.34938,0,0,0,32.258,10Z"/><rect id="Rectangle-3" class="cls-2" x="16.658" width="3.9" height="3.6"/><rect id="Rectangle-3-2" data-name="Rectangle-3" class="cls-2" x="16.658" y="4.3" width="3.9" height="3.6"/><rect id="Rectangle-3-3" data-name="Rectangle-3" class="cls-2" x="12.058" y="4.3" width="3.9" height="3.6"/><rect id="Rectangle-3-4" data-name="Rectangle-3" class="cls-2" x="7.458" y="4.3" width="3.9" height="3.6"/><rect id="Rectangle-3-5" data-name="Rectangle-3" class="cls-2" x="2.858" y="8.5" width="3.9" height="3.6"/><rect id="Rectangle-3-6" data-name="Rectangle-3" class="cls-2" x="7.458" y="8.5" width="3.9" height="3.6"/><rect id="Rectangle-3-7" data-name="Rectangle-3" class="cls-2" x="12.058" y="8.5" width="3.9" height="3.6"/><rect id="Rectangle-3-8" data-name="Rectangle-3" class="cls-2" x="16.658" y="8.5" width="3.9" height="3.6"/><rect id="Rectangle-3-9" data-name="Rectangle-3" class="cls-2" x="21.258" y="8.5" width="3.9" height="3.6"/></g></g></svg>