<?xml version="1.0" encoding="UTF-8"?>
<svg width="107px" height="26px" viewBox="0 0 107 26" version="1.1" xmlns="http://www.w3.org/2000/svg" xmlns:xlink="http://www.w3.org/1999/xlink">
    <!-- Generator: Sketch 46.1 (44463) - http://www.bohemiancoding.com/sketch -->
    <title>Group 6@3x</title>
    <desc>Created with Sketch.</desc>
    <defs>
        <polygon id="path-1" points="0.0158518519 26 106.908588 26 106.908588 0.215616162 0.0158518519 0.215616162"></polygon>
    </defs>
    <g id="layout" stroke="none" stroke-width="1" fill="none" fill-rule="evenodd">
        <g id="Landing" transform="translate(-887.000000, -4346.000000)">
            <g id="Group-6" transform="translate(887.000000, 4346.000000)">
                <path d="M83.0476334,11.6175839 C82.7233933,13.7257567 81.09686,13.7257567 79.5236556,13.7257567 L78.628529,13.7257567 L79.2564775,9.78972661 C79.294341,9.5519072 79.5015241,9.37664406 79.7449708,9.37664406 L80.1553371,9.37664406 C81.2259161,9.37664406 82.2375665,9.37664406 82.7591237,9.98056284 C83.0710982,10.3419111 83.1654904,10.8774667 83.0476334,11.6175839 Z M82.3628895,6.11764706 L76.4297758,6.11764706 C76.0242091,6.11764706 75.678904,6.40984028 75.6157092,6.8065579 L73.2167059,21.8657266 C73.1692431,22.1626709 73.4012241,22.4313725 73.7051992,22.4313725 L76.7492163,22.4313725 C77.033193,22.4313725 77.2750399,22.2268109 77.3190363,21.949135 L77.9995138,17.6799993 C78.0627087,17.2832817 78.4080137,16.9910885 78.8135805,16.9910885 L80.6910266,16.9910885 C84.5989729,16.9910885 86.8542547,15.1188875 87.4438064,11.4085351 C87.709118,9.78576736 87.4544722,8.51062242 86.6868018,7.61794178 C85.8431376,6.63657377 84.3477935,6.11764706 82.3628895,6.11764706 L82.3628895,6.11764706 Z" id="Fill-1" fill="#238EC2"></path>
                <path d="M41.0665691,11.6175839 C40.7423336,13.7257567 39.1158233,13.7257567 37.5429078,13.7257567 L36.6477938,13.7257567 L37.2754668,9.78972661 C37.3135965,9.5519072 37.5207766,9.37664406 37.7639532,9.37664406 L38.1743138,9.37664406 C39.2451442,9.37664406 40.2567803,9.37664406 40.7780635,9.98056284 C41.0903002,10.3419111 41.1846911,10.8774667 41.0665691,11.6175839 Z M40.3821016,6.11764706 L34.4490718,6.11764706 C34.0435108,6.11764706 33.6982106,6.40984028 33.6350167,6.8065579 L31.2357806,21.8657266 C31.1885851,22.1626709 31.4205629,22.4313725 31.724267,22.4313725 L34.5570614,22.4313725 C34.9626224,22.4313725 35.3081892,22.1391793 35.3713831,21.7427257 L36.0187876,17.6799993 C36.0817149,17.2832817 36.4272817,16.9910885 36.8328427,16.9910885 L38.7102623,16.9910885 C42.6178867,16.9910885 44.8734033,15.1188875 45.4629466,11.4085351 C45.7282544,9.78576736 45.4736123,8.51062242 44.7059527,7.61794178 C43.8620338,6.63657377 42.3667108,6.11764706 40.3821016,6.11764706 L40.3821016,6.11764706 Z" id="Fill-2" fill="#253667"></path>
                <path d="M53.9440167,16.8577869 C53.6717458,18.4377827 52.3929457,19.4984664 50.7619663,19.4984664 C49.9443598,19.4984664 49.2897454,19.2404973 48.8690352,18.752069 C48.4520294,18.267793 48.2951231,17.5779722 48.4271573,16.8097745 C48.6811709,15.2440527 49.980345,14.1491114 51.5864523,14.1491114 C52.3871246,14.1491114 53.0369762,14.4096758 53.4661535,14.9025161 C53.8979767,15.3989898 54.0675838,16.0934821 53.9440167,16.8577869 Z M57.8727615,11.4759911 L55.0537389,11.4759911 C54.8121614,11.4759911 54.606569,11.648057 54.5689962,11.8824092 L54.4448999,12.6555379 L54.2477747,12.3752495 C53.6373481,11.5060961 52.2767874,11.2156863 50.9180788,11.2156863 C47.8035008,11.2156863 45.1429722,13.5306604 44.6251547,16.7775933 C44.3555298,18.3972966 44.7381379,19.9451111 45.6745487,21.0255189 C46.5347554,22.0182068 47.7624881,22.4313725 49.2251835,22.4313725 C51.7356853,22.4313725 53.1279978,20.8495601 53.1279978,20.8495601 L53.0020493,21.6180173 C52.954951,21.9102438 53.1851509,22.1747011 53.4867921,22.1747011 L56.0256058,22.1747011 C56.4280587,22.1747011 56.7707126,21.8876651 56.8334222,21.4975971 L58.3575043,12.0321558 C58.4046026,11.7399293 58.1744027,11.4759911 57.8727615,11.4759911 L57.8727615,11.4759911 Z" id="Fill-3" fill="#253667"></path>
                <path d="M95.9248359,16.8577869 C95.6525624,18.4377827 94.3740147,19.4984664 92.7430197,19.4984664 C91.9251408,19.4984664 91.2707848,19.2404973 90.849806,18.752069 C90.4327963,18.267793 90.2758884,17.5779722 90.4081885,16.8097745 C90.6619399,15.2440527 91.9611264,14.1491114 93.5675136,14.1491114 C94.3679289,14.1491114 95.0180513,14.4096758 95.4469681,14.9025161 C95.8787954,15.3989898 96.0484041,16.0934821 95.9248359,16.8577869 Z M99.8536181,11.4759911 L97.0345687,11.4759911 C96.7929888,11.4759911 96.5873945,11.648057 96.5498213,11.8824092 L96.4257238,12.6555379 L96.2288614,12.3752495 C95.6181643,11.5060961 94.2575906,11.2156863 92.8988692,11.2156863 C89.784526,11.2156863 87.1237075,13.5306604 86.6058851,16.7775933 C86.3365222,18.3972966 86.7191339,19.9451111 87.6552891,21.0255189 C88.5157686,22.0182068 89.7432484,22.4313725 91.2059577,22.4313725 C93.7164835,22.4313725 95.1088092,20.8495601 95.1088092,20.8495601 L94.9831241,21.6180173 C94.9357607,21.9102438 95.1659628,22.1747011 95.4678715,22.1747011 L98.0064448,22.1747011 C98.4089016,22.1747011 98.7515587,21.8876651 98.8145335,21.4975971 L100.338365,12.0321558 C100.385464,11.7399293 100.155262,11.4759911 99.8536181,11.4759911 L99.8536181,11.4759911 Z" id="Fill-4" fill="#238EC2"></path>
                <g id="Group-11">
                    <mask id="mask-2" fill="white">
                        <use xlink:href="#path-1"></use>
                    </mask>
                    <g id="Clip-6"></g>
                    <path d="M72.9660741,11.3869495 L70.1367827,11.3869495 C69.8662444,11.3869495 69.6131432,11.5203636 69.4612296,11.7428081 L65.5585037,17.4567677 L63.904363,11.9660404 C63.8010617,11.6225253 63.4829679,11.3869495 63.1220741,11.3869495 L60.3408667,11.3869495 C60.0050716,11.3869495 59.7686148,11.7152323 59.8769358,12.0311717 L62.9923531,21.1211919 L60.0621383,25.2312929 C59.8320222,25.553798 60.0642519,26 60.4618691,26 L63.2885185,26 C63.5564148,26 63.8071383,25.8694747 63.9598444,25.6504444 L73.3689753,12.1517172 C73.5940716,11.8286869 73.3615778,11.3869495 72.9660741,11.3869495" id="Fill-5" fill="#253667" mask="url(#mask-2)"></path>
                    <path d="M103.219069,6.39311111 L100.806417,21.6506465 C100.759654,21.9463636 100.989506,22.2134545 101.290427,22.2134545 L103.717081,22.2134545 C104.118926,22.2134545 104.461062,21.9227273 104.523677,21.5282626 L106.902511,6.54464646 C106.949538,6.24892929 106.719686,5.98157576 106.418501,5.98157576 L103.703079,5.98157576 C103.461867,5.98157576 103.256585,6.15622222 103.219069,6.39311111" id="Fill-7" fill="#238EC2" mask="url(#mask-2)"></path>
                    <path d="M19.8097951,6.76630303 C20.1263037,4.76062626 19.8076815,3.39575758 18.7162815,2.15957576 C17.5147111,0.798646465 15.3440642,0.215616162 12.5668198,0.215616162 L4.5048321,0.215616162 C3.9373358,0.215616162 3.45411852,0.62610101 3.36561235,1.18339394 L0.00871851852,22.3439798 C-0.0575950617,22.7615556 0.267103704,23.1389495 0.692197531,23.1389495 L5.66915062,23.1389495 L5.32569383,25.304303 C5.26783457,25.6696162 5.55158272,26 5.92357284,26 L10.1185012,26 C10.6151926,26 11.0379086,25.6407273 11.1153185,25.1532929 L11.1565333,24.9413535 L11.9467481,19.9598586 L11.9977383,19.6846263 C12.0751481,19.1969293 12.4978642,18.8379192 12.9942914,18.8379192 L13.6217605,18.8379192 C17.6859111,18.8379192 20.8681704,17.1965051 21.7978815,12.449798 C22.186516,10.4664444 21.9857259,8.81084848 20.9582617,7.64688889 C20.6473012,7.2949697 20.2607802,7.00371717 19.8097951,6.76630303" id="Fill-8" fill="#238EC2" mask="url(#mask-2)"></path>
                    <path d="M19.8097951,6.76630303 C20.1263037,4.76062626 19.8076815,3.39575758 18.7162815,2.15957576 C17.5147111,0.798646465 15.3440642,0.215616162 12.5668198,0.215616162 L4.5048321,0.215616162 C3.9373358,0.215616162 3.45411852,0.62610101 3.36561235,1.18339394 L0.00871851852,22.3439798 C-0.0575950617,22.7615556 0.267103704,23.1389495 0.692197531,23.1389495 L5.66915062,23.1389495 L6.91933333,15.2585859 L6.8804963,15.5057172 C6.96900247,14.9484242 7.44825679,14.5376768 8.01575309,14.5376768 L10.3813778,14.5376768 C15.0270272,14.5376768 18.6644988,12.6614747 19.7273654,7.23561616 C19.7588049,7.07515152 19.7857531,6.91941414 19.8097951,6.76630303" id="Fill-9" fill="#20274F" mask="url(#mask-2)"></path>
                    <path d="M8.26224938,6.79309091 C8.31561728,6.45771717 8.53199506,6.18327273 8.82340494,6.04434343 C8.9560321,5.98131313 9.10398272,5.94612121 9.25906667,5.94612121 L15.5784074,5.94612121 C16.3271432,5.94612121 17.0251531,5.9949697 17.6631901,6.09713131 C17.8457506,6.12628283 18.0230272,6.15989899 18.1955481,6.1979798 C18.3678049,6.23579798 18.5353062,6.27834343 18.6972593,6.32561616 C18.7783679,6.3489899 18.8578914,6.37367677 18.936358,6.39967677 C19.2496963,6.50288889 19.5413704,6.6250101 19.8097951,6.76630303 C20.1263037,4.76062626 19.8076815,3.39575758 18.7162815,2.15957576 C17.5147111,0.798646465 15.3440642,0.215616162 12.5668198,0.215616162 L4.5048321,0.215616162 C3.9373358,0.215616162 3.45411852,0.62610101 3.36561235,1.18339394 L0.00871851852,22.3439798 C-0.0575950617,22.7615556 0.267103704,23.1389495 0.692197531,23.1389495 L5.66915062,23.1389495 L8.26224938,6.79309091" id="Fill-10" fill="#253667" mask="url(#mask-2)"></path>
                </g>
            </g>
        </g>
    </g>
</svg>